<svg width="45" height="44" viewBox="0 0 45 44" fill="none" xmlns="http://www.w3.org/2000/svg">
<rect x="0.5" width="44" height="44" rx="22" fill="white"/>
<path fill-rule="evenodd" clip-rule="evenodd" d="M22.5846 37.5555C31.1757 37.5555 38.1402 30.591 38.1402 21.9999C38.1402 13.4088 31.1757 6.44436 22.5846 6.44436C13.9935 6.44436 7.02908 13.4088 7.02908 21.9999C7.02908 30.591 13.9935 37.5555 22.5846 37.5555ZM22.5846 38.6666C31.7894 38.6666 39.2513 31.2047 39.2513 21.9999C39.2513 12.7952 31.7894 5.33325 22.5846 5.33325C13.3799 5.33325 5.91797 12.7952 5.91797 21.9999C5.91797 31.2047 13.3799 38.6666 22.5846 38.6666Z" fill="#BA1A1A"/>
<rect x="29.832" y="1.33325" width="13.8889" height="13.8889" rx="6.94444" fill="white"/>
<path d="M36.22 8.55553H32.8867V7.44442H36.22V4.11108H37.3312V7.44442H40.6645V8.55553H37.3312V11.8889H36.22V8.55553Z" fill="#BA1A1A"/>
<path d="M23.079 21.8934C21.8465 21.2771 21.2302 20.3052 21.2302 18.9778C21.2302 18.3378 21.3902 17.7511 21.7102 17.2178C22.0302 16.6845 22.5102 16.2637 23.1502 15.9556C23.7902 15.6356 24.5724 15.4756 25.4968 15.4756C26.4094 15.4756 27.1857 15.6356 27.8257 15.9556C28.4776 16.2637 28.9635 16.6845 29.2835 17.2178C29.6035 17.7511 29.7635 18.3378 29.7635 18.9778C29.7635 19.6415 29.5916 20.2282 29.2479 20.7378C28.9161 21.2356 28.4716 21.6208 27.9146 21.8934C28.5902 22.1423 29.1235 22.5511 29.5146 23.12C29.9057 23.6771 30.1013 24.3348 30.1013 25.0934C30.1013 25.8637 29.9057 26.5452 29.5146 27.1378C29.1235 27.7304 28.5783 28.1867 27.879 28.5067C27.1798 28.8267 26.3857 28.9867 25.4968 28.9867C24.6079 28.9867 23.8139 28.8267 23.1146 28.5067C22.4272 28.1867 21.8879 27.7304 21.4968 27.1378C21.1057 26.5452 20.9102 25.8637 20.9102 25.0934C20.9102 24.323 21.1057 23.6593 21.4968 23.1023C21.8879 22.5452 22.4153 22.1423 23.079 21.8934ZM27.8257 19.2267C27.8257 18.563 27.6183 18.0534 27.2035 17.6978C26.7887 17.3423 26.2198 17.1645 25.4968 17.1645C24.7857 17.1645 24.2227 17.3423 23.8079 17.6978C23.3931 18.0534 23.1857 18.5689 23.1857 19.2445C23.1857 19.8371 23.399 20.323 23.8257 20.7023C24.2642 21.0697 24.8213 21.2534 25.4968 21.2534C26.1724 21.2534 26.7294 21.0637 27.1679 20.6845C27.6064 20.3052 27.8257 19.8193 27.8257 19.2267ZM25.4968 22.7823C24.7146 22.7823 24.0746 22.9778 23.5768 23.3689C23.0909 23.7482 22.8479 24.2993 22.8479 25.0223C22.8479 25.6978 23.085 26.2489 23.559 26.6756C24.0331 27.0904 24.679 27.2978 25.4968 27.2978C26.3027 27.2978 26.9368 27.0845 27.399 26.6578C27.8731 26.2311 28.1102 25.686 28.1102 25.0223C28.1102 24.3111 27.8672 23.76 27.3813 23.3689C26.9072 22.9778 26.279 22.7823 25.4968 22.7823Z" fill="#BA1A1A"/>
<path d="M14.4102 17.5557V15.7068H18.1079V28.6668H16.0635V17.5557H14.4102Z" fill="#BA1A1A"/>
</svg>
