<svg width="16" height="16" viewBox="0 0 16 16" fill="none" xmlns="http://www.w3.org/2000/svg">
<mask id="mask0_1754_7189" style="mask-type:alpha" maskUnits="userSpaceOnUse" x="0" y="0" width="16" height="16">
<rect width="16" height="16" fill="#D9D9D9"/>
</mask>
<g mask="url(#mask0_1754_7189)">
<path d="M14.6654 3.99996V12C14.6654 12.3666 14.5348 12.6805 14.2737 12.9416C14.0126 13.2027 13.6987 13.3333 13.332 13.3333H2.66536C2.2987 13.3333 1.98481 13.2027 1.7237 12.9416C1.46259 12.6805 1.33203 12.3666 1.33203 12V3.99996C1.33203 3.63329 1.46259 3.3194 1.7237 3.05829C1.98481 2.79718 2.2987 2.66663 2.66536 2.66663H13.332C13.6987 2.66663 14.0126 2.79718 14.2737 3.05829C14.5348 3.3194 14.6654 3.63329 14.6654 3.99996ZM2.66536 5.33329H13.332V3.99996H2.66536V5.33329ZM2.66536 7.99996V12H13.332V7.99996H2.66536Z" fill="#1C1B1F"/>
</g>
</svg>
