<svg width="16" height="16" viewBox="0 0 16 16" fill="none" xmlns="http://www.w3.org/2000/svg">
<mask id="mask0_1754_16848" style="mask-type:alpha" maskUnits="userSpaceOnUse" x="0" y="0" width="16" height="16">
<rect width="16" height="16" fill="#D9D9D9"/>
</mask>
<g mask="url(#mask0_1754_16848)">
<path d="M0.667969 14V10.6667H2.0013V12.6667H4.0013V14H0.667969ZM12.0013 14V12.6667H14.0013V10.6667H15.3346V14H12.0013ZM2.66797 12V4H4.0013V12H2.66797ZM4.66797 12V4H5.33464V12H4.66797ZM6.66797 12V4H8.0013V12H6.66797ZM8.66797 12V4H10.668V12H8.66797ZM11.3346 12V4H12.0013V12H11.3346ZM12.668 12V4H13.3346V12H12.668ZM0.667969 5.33333V2H4.0013V3.33333H2.0013V5.33333H0.667969ZM14.0013 5.33333V3.33333H12.0013V2H15.3346V5.33333H14.0013Z" fill="#454743"/>
</g>
</svg>
